<svg width="2048" height="2048" viewBox="0 0 2048 2048" fill="none" xmlns="http://www.w3.org/2000/svg">
<g filter="url(#filter0_d_31_2)">
<g filter="url(#filter1_i_31_2)">
<path d="M1537.17 771.413H1495.04C1487.5 771.413 1481.39 765.301 1481.39 757.76V655.36C1481.39 647.819 1487.5 641.707 1495.04 641.707H1537.17C1540.79 641.707 1544.27 640.268 1546.83 637.708L1566.13 618.399C1568.69 615.838 1570.13 612.366 1570.13 608.745V585.922C1570.13 582.301 1571.57 578.828 1574.13 576.268L1593.44 556.959C1596 554.398 1599.47 552.96 1603.1 552.96H1741.97C1745.59 552.96 1749.07 554.398 1751.63 556.959L1770.93 576.268C1773.49 578.828 1774.93 582.301 1774.93 585.922V1455.25C1774.93 1458.87 1773.49 1462.35 1770.93 1464.91L1751.63 1484.21C1749.07 1486.77 1745.59 1488.21 1741.97 1488.21H1603.1C1599.47 1488.21 1596 1486.77 1593.44 1484.21L1574.13 1464.91C1571.57 1462.35 1570.13 1458.87 1570.13 1455.25V804.375C1570.13 800.754 1568.69 797.281 1566.13 794.721L1546.83 775.412C1544.27 772.852 1540.79 771.413 1537.17 771.413Z" fill="url(#paint0_radial_31_2)" fill-opacity="0.95"/>
<path d="M1537.17 771.413H1495.04C1487.5 771.413 1481.39 765.301 1481.39 757.76V655.36C1481.39 647.819 1487.5 641.707 1495.04 641.707H1537.17C1540.79 641.707 1544.27 640.268 1546.83 637.708L1566.13 618.399C1568.69 615.838 1570.13 612.366 1570.13 608.745V585.922C1570.13 582.301 1571.57 578.828 1574.13 576.268L1593.44 556.959C1596 554.398 1599.47 552.96 1603.1 552.96H1741.97C1745.59 552.96 1749.07 554.398 1751.63 556.959L1770.93 576.268C1773.49 578.828 1774.93 582.301 1774.93 585.922V1455.25C1774.93 1458.87 1773.49 1462.35 1770.93 1464.91L1751.63 1484.21C1749.07 1486.77 1745.59 1488.21 1741.97 1488.21H1603.1C1599.47 1488.21 1596 1486.77 1593.44 1484.21L1574.13 1464.91C1571.57 1462.35 1570.13 1458.87 1570.13 1455.25V804.375C1570.13 800.754 1568.69 797.281 1566.13 794.721L1546.83 775.412C1544.27 772.852 1540.79 771.413 1537.17 771.413Z" fill="url(#paint1_linear_31_2)" fill-opacity="0.2"/>
<path d="M1537.17 771.413H1495.04C1487.5 771.413 1481.39 765.301 1481.39 757.76V655.36C1481.39 647.819 1487.5 641.707 1495.04 641.707H1537.17C1540.79 641.707 1544.27 640.268 1546.83 637.708L1566.13 618.399C1568.69 615.838 1570.13 612.366 1570.13 608.745V585.922C1570.13 582.301 1571.57 578.828 1574.13 576.268L1593.44 556.959C1596 554.398 1599.47 552.96 1603.1 552.96H1741.97C1745.59 552.96 1749.07 554.398 1751.63 556.959L1770.93 576.268C1773.49 578.828 1774.93 582.301 1774.93 585.922V1455.25C1774.93 1458.87 1773.49 1462.35 1770.93 1464.91L1751.63 1484.21C1749.07 1486.77 1745.59 1488.21 1741.97 1488.21H1603.1C1599.47 1488.21 1596 1486.77 1593.44 1484.21L1574.13 1464.91C1571.57 1462.35 1570.13 1458.87 1570.13 1455.25V804.375C1570.13 800.754 1568.69 797.281 1566.13 794.721L1546.83 775.412C1544.27 772.852 1540.79 771.413 1537.17 771.413Z" stroke="url(#paint2_linear_31_2)" stroke-opacity="0.6" stroke-width="13.6533"/>
<path d="M1537.17 771.413H1495.04C1487.5 771.413 1481.39 765.301 1481.39 757.76V655.36C1481.39 647.819 1487.5 641.707 1495.04 641.707H1537.17C1540.79 641.707 1544.27 640.268 1546.83 637.708L1566.13 618.399C1568.69 615.838 1570.13 612.366 1570.13 608.745V585.922C1570.13 582.301 1571.57 578.828 1574.13 576.268L1593.44 556.959C1596 554.398 1599.47 552.96 1603.1 552.96H1741.97C1745.59 552.96 1749.07 554.398 1751.63 556.959L1770.93 576.268C1773.49 578.828 1774.93 582.301 1774.93 585.922V1455.25C1774.93 1458.87 1773.49 1462.35 1770.93 1464.91L1751.63 1484.21C1749.07 1486.77 1745.59 1488.21 1741.97 1488.21H1603.1C1599.47 1488.21 1596 1486.77 1593.44 1484.21L1574.13 1464.91C1571.57 1462.35 1570.13 1458.87 1570.13 1455.25V804.375C1570.13 800.754 1568.69 797.281 1566.13 794.721L1546.83 775.412C1544.27 772.852 1540.79 771.413 1537.17 771.413Z" stroke="url(#paint3_radial_31_2)" stroke-opacity="0.66" stroke-width="13.6533"/>
</g>
<g filter="url(#filter2_i_31_2)">
<path d="M308.372 771.413H266.24C258.7 771.413 252.587 765.301 252.587 757.76V655.36C252.587 647.819 258.7 641.707 266.24 641.707H308.372C311.993 641.707 315.465 640.268 318.026 637.708L337.335 618.399C339.895 615.838 341.334 612.366 341.334 608.745V585.922C341.334 582.301 342.772 578.828 345.333 576.268L364.641 556.959C367.202 554.398 370.675 552.96 374.296 552.96H513.172C516.793 552.96 520.265 554.398 522.826 556.959L542.135 576.268C544.695 578.828 546.134 582.301 546.134 585.922V1455.25C546.134 1458.87 544.695 1462.35 542.135 1464.91L522.826 1484.21C520.265 1486.77 516.793 1488.21 513.172 1488.21H374.296C370.675 1488.21 367.202 1486.77 364.641 1484.21L345.333 1464.91C342.772 1462.35 341.334 1458.87 341.334 1455.25V804.375C341.334 800.754 339.895 797.281 337.335 794.721L318.026 775.412C315.465 772.852 311.993 771.413 308.372 771.413Z" fill="url(#paint4_radial_31_2)" fill-opacity="0.95"/>
<path d="M308.372 771.413H266.24C258.7 771.413 252.587 765.301 252.587 757.76V655.36C252.587 647.819 258.7 641.707 266.24 641.707H308.372C311.993 641.707 315.465 640.268 318.026 637.708L337.335 618.399C339.895 615.838 341.334 612.366 341.334 608.745V585.922C341.334 582.301 342.772 578.828 345.333 576.268L364.641 556.959C367.202 554.398 370.675 552.96 374.296 552.96H513.172C516.793 552.96 520.265 554.398 522.826 556.959L542.135 576.268C544.695 578.828 546.134 582.301 546.134 585.922V1455.25C546.134 1458.87 544.695 1462.35 542.135 1464.91L522.826 1484.21C520.265 1486.77 516.793 1488.21 513.172 1488.21H374.296C370.675 1488.21 367.202 1486.77 364.641 1484.21L345.333 1464.91C342.772 1462.35 341.334 1458.87 341.334 1455.25V804.375C341.334 800.754 339.895 797.281 337.335 794.721L318.026 775.412C315.465 772.852 311.993 771.413 308.372 771.413Z" fill="url(#paint5_linear_31_2)" fill-opacity="0.2"/>
<path d="M308.372 771.413H266.24C258.7 771.413 252.587 765.301 252.587 757.76V655.36C252.587 647.819 258.7 641.707 266.24 641.707H308.372C311.993 641.707 315.465 640.268 318.026 637.708L337.335 618.399C339.895 615.838 341.334 612.366 341.334 608.745V585.922C341.334 582.301 342.772 578.828 345.333 576.268L364.641 556.959C367.202 554.398 370.675 552.96 374.296 552.96H513.172C516.793 552.96 520.265 554.398 522.826 556.959L542.135 576.268C544.695 578.828 546.134 582.301 546.134 585.922V1455.25C546.134 1458.87 544.695 1462.35 542.135 1464.91L522.826 1484.21C520.265 1486.77 516.793 1488.21 513.172 1488.21H374.296C370.675 1488.21 367.202 1486.77 364.641 1484.21L345.333 1464.91C342.772 1462.35 341.334 1458.87 341.334 1455.25V804.375C341.334 800.754 339.895 797.281 337.335 794.721L318.026 775.412C315.465 772.852 311.993 771.413 308.372 771.413Z" stroke="url(#paint6_linear_31_2)" stroke-opacity="0.6" stroke-width="13.6533"/>
<path d="M308.372 771.413H266.24C258.7 771.413 252.587 765.301 252.587 757.76V655.36C252.587 647.819 258.7 641.707 266.24 641.707H308.372C311.993 641.707 315.465 640.268 318.026 637.708L337.335 618.399C339.895 615.838 341.334 612.366 341.334 608.745V585.922C341.334 582.301 342.772 578.828 345.333 576.268L364.641 556.959C367.202 554.398 370.675 552.96 374.296 552.96H513.172C516.793 552.96 520.265 554.398 522.826 556.959L542.135 576.268C544.695 578.828 546.134 582.301 546.134 585.922V1455.25C546.134 1458.87 544.695 1462.35 542.135 1464.91L522.826 1484.21C520.265 1486.77 516.793 1488.21 513.172 1488.21H374.296C370.675 1488.21 367.202 1486.77 364.641 1484.21L345.333 1464.91C342.772 1462.35 341.334 1458.87 341.334 1455.25V804.375C341.334 800.754 339.895 797.281 337.335 794.721L318.026 775.412C315.465 772.852 311.993 771.413 308.372 771.413Z" stroke="url(#paint7_radial_31_2)" stroke-opacity="0.66" stroke-width="13.6533"/>
</g>
<g filter="url(#filter3_i_31_2)">
<path d="M1327.2 576.268L1307.89 556.959C1305.33 554.398 1301.86 552.96 1298.24 552.96H730.453C722.913 552.96 716.8 559.073 716.8 566.613V1025.17C716.8 1028.79 718.238 1032.27 720.799 1034.83L740.108 1054.13C742.668 1056.69 746.141 1058.13 749.762 1058.13H1113.92C1117.54 1058.13 1121.01 1059.57 1123.57 1062.13L1142.88 1081.44C1145.44 1084 1146.88 1087.47 1146.88 1091.1V1276.59C1146.88 1284.13 1140.77 1290.24 1133.23 1290.24H942.08C934.539 1290.24 928.426 1284.13 928.426 1276.59V1248.11C928.426 1244.49 926.988 1241.01 924.428 1238.45L905.119 1219.15C902.558 1216.59 899.085 1215.15 895.464 1215.15H730.453C722.913 1215.15 716.8 1221.26 716.8 1228.8V1332.37C716.8 1335.99 718.238 1339.47 720.799 1342.03L740.108 1361.33C742.668 1363.89 746.141 1365.33 749.762 1365.33H791.893C799.434 1365.33 805.546 1371.45 805.546 1378.99V1455.25C805.546 1458.87 806.985 1462.35 809.545 1464.91L828.854 1484.21C831.415 1486.77 834.887 1488.21 838.509 1488.21H1209.49C1213.11 1488.21 1216.58 1486.77 1219.15 1484.21L1238.45 1464.91C1241.01 1462.35 1242.45 1458.87 1242.45 1455.25V1391.47C1242.45 1387.85 1243.89 1384.37 1246.45 1381.81L1265.76 1362.51C1268.32 1359.95 1271.79 1358.51 1275.42 1358.51H1311.89C1315.51 1358.51 1318.98 1357.07 1321.55 1354.51L1340.85 1335.2C1343.41 1332.64 1344.85 1329.17 1344.85 1325.54V1029.66C1344.85 1026.03 1343.41 1022.56 1340.85 1020L1321.55 1000.69C1318.98 998.132 1315.51 996.693 1311.89 996.693H1275.42C1271.79 996.693 1268.32 995.255 1265.76 992.694L1246.45 973.386C1243.89 970.825 1242.45 967.352 1242.45 963.731V901.12C1242.45 893.579 1236.34 887.467 1228.8 887.467H928.426C920.886 887.467 914.773 881.354 914.773 873.813V737.28C914.773 729.739 920.886 723.627 928.426 723.627H1298.24C1301.86 723.627 1305.33 722.188 1307.89 719.628L1327.2 700.319C1329.76 697.758 1331.2 694.286 1331.2 690.665V585.922C1331.2 582.301 1329.76 578.828 1327.2 576.268Z" fill="url(#paint8_radial_31_2)" fill-opacity="0.95"/>
<path d="M1327.2 576.268L1307.89 556.959C1305.33 554.398 1301.86 552.96 1298.24 552.96H730.453C722.913 552.96 716.8 559.073 716.8 566.613V1025.17C716.8 1028.79 718.238 1032.27 720.799 1034.83L740.108 1054.13C742.668 1056.69 746.141 1058.13 749.762 1058.13H1113.92C1117.54 1058.13 1121.01 1059.57 1123.57 1062.13L1142.88 1081.44C1145.44 1084 1146.88 1087.47 1146.88 1091.1V1276.59C1146.88 1284.13 1140.77 1290.24 1133.23 1290.24H942.08C934.539 1290.24 928.426 1284.13 928.426 1276.59V1248.11C928.426 1244.49 926.988 1241.01 924.428 1238.45L905.119 1219.15C902.558 1216.59 899.085 1215.15 895.464 1215.15H730.453C722.913 1215.15 716.8 1221.26 716.8 1228.8V1332.37C716.8 1335.99 718.238 1339.47 720.799 1342.03L740.108 1361.33C742.668 1363.89 746.141 1365.33 749.762 1365.33H791.893C799.434 1365.33 805.546 1371.45 805.546 1378.99V1455.25C805.546 1458.87 806.985 1462.35 809.545 1464.91L828.854 1484.21C831.415 1486.77 834.887 1488.21 838.509 1488.21H1209.49C1213.11 1488.21 1216.58 1486.77 1219.15 1484.21L1238.45 1464.91C1241.01 1462.35 1242.45 1458.87 1242.45 1455.25V1391.47C1242.45 1387.85 1243.89 1384.37 1246.45 1381.81L1265.76 1362.51C1268.32 1359.95 1271.79 1358.51 1275.42 1358.51H1311.89C1315.51 1358.51 1318.98 1357.07 1321.55 1354.51L1340.85 1335.2C1343.41 1332.64 1344.85 1329.17 1344.85 1325.54V1029.66C1344.85 1026.03 1343.41 1022.56 1340.85 1020L1321.55 1000.69C1318.98 998.132 1315.51 996.693 1311.89 996.693H1275.42C1271.79 996.693 1268.32 995.255 1265.76 992.694L1246.45 973.386C1243.89 970.825 1242.45 967.352 1242.45 963.731V901.12C1242.45 893.579 1236.34 887.467 1228.8 887.467H928.426C920.886 887.467 914.773 881.354 914.773 873.813V737.28C914.773 729.739 920.886 723.627 928.426 723.627H1298.24C1301.86 723.627 1305.33 722.188 1307.89 719.628L1327.2 700.319C1329.76 697.758 1331.2 694.286 1331.2 690.665V585.922C1331.2 582.301 1329.76 578.828 1327.2 576.268Z" fill="url(#paint9_linear_31_2)" fill-opacity="0.2"/>
<path d="M1327.2 576.268L1307.89 556.959C1305.33 554.398 1301.86 552.96 1298.24 552.96H730.453C722.913 552.96 716.8 559.073 716.8 566.613V1025.17C716.8 1028.79 718.238 1032.27 720.799 1034.83L740.108 1054.13C742.668 1056.69 746.141 1058.13 749.762 1058.13H1113.92C1117.54 1058.13 1121.01 1059.57 1123.57 1062.13L1142.88 1081.44C1145.44 1084 1146.88 1087.47 1146.88 1091.1V1276.59C1146.88 1284.13 1140.77 1290.24 1133.23 1290.24H942.08C934.539 1290.24 928.426 1284.13 928.426 1276.59V1248.11C928.426 1244.49 926.988 1241.01 924.428 1238.45L905.119 1219.15C902.558 1216.59 899.085 1215.15 895.464 1215.15H730.453C722.913 1215.15 716.8 1221.26 716.8 1228.8V1332.37C716.8 1335.99 718.238 1339.47 720.799 1342.03L740.108 1361.33C742.668 1363.89 746.141 1365.33 749.762 1365.33H791.893C799.434 1365.33 805.546 1371.45 805.546 1378.99V1455.25C805.546 1458.87 806.985 1462.35 809.545 1464.91L828.854 1484.21C831.415 1486.77 834.887 1488.21 838.509 1488.21H1209.49C1213.11 1488.21 1216.58 1486.77 1219.15 1484.21L1238.45 1464.91C1241.01 1462.35 1242.45 1458.87 1242.45 1455.25V1391.47C1242.45 1387.85 1243.89 1384.37 1246.45 1381.81L1265.76 1362.51C1268.32 1359.95 1271.79 1358.51 1275.42 1358.51H1311.89C1315.51 1358.51 1318.98 1357.07 1321.55 1354.51L1340.85 1335.2C1343.41 1332.64 1344.85 1329.17 1344.85 1325.54V1029.66C1344.85 1026.03 1343.41 1022.56 1340.85 1020L1321.55 1000.69C1318.98 998.132 1315.51 996.693 1311.89 996.693H1275.42C1271.79 996.693 1268.32 995.255 1265.76 992.694L1246.45 973.386C1243.89 970.825 1242.45 967.352 1242.45 963.731V901.12C1242.45 893.579 1236.34 887.467 1228.8 887.467H928.426C920.886 887.467 914.773 881.354 914.773 873.813V737.28C914.773 729.739 920.886 723.627 928.426 723.627H1298.24C1301.86 723.627 1305.33 722.188 1307.89 719.628L1327.2 700.319C1329.76 697.758 1331.2 694.286 1331.2 690.665V585.922C1331.2 582.301 1329.76 578.828 1327.2 576.268Z" stroke="url(#paint10_radial_31_2)" stroke-opacity="0.65" stroke-width="13.6533"/>
<path d="M1327.2 576.268L1307.89 556.959C1305.33 554.398 1301.86 552.96 1298.24 552.96H730.453C722.913 552.96 716.8 559.073 716.8 566.613V1025.17C716.8 1028.79 718.238 1032.27 720.799 1034.83L740.108 1054.13C742.668 1056.69 746.141 1058.13 749.762 1058.13H1113.92C1117.54 1058.13 1121.01 1059.57 1123.57 1062.13L1142.88 1081.44C1145.44 1084 1146.88 1087.47 1146.88 1091.1V1276.59C1146.88 1284.13 1140.77 1290.24 1133.23 1290.24H942.08C934.539 1290.24 928.426 1284.13 928.426 1276.59V1248.11C928.426 1244.49 926.988 1241.01 924.428 1238.45L905.119 1219.15C902.558 1216.59 899.085 1215.15 895.464 1215.15H730.453C722.913 1215.15 716.8 1221.26 716.8 1228.8V1332.37C716.8 1335.99 718.238 1339.47 720.799 1342.03L740.108 1361.33C742.668 1363.89 746.141 1365.33 749.762 1365.33H791.893C799.434 1365.33 805.546 1371.45 805.546 1378.99V1455.25C805.546 1458.87 806.985 1462.35 809.545 1464.91L828.854 1484.21C831.415 1486.77 834.887 1488.21 838.509 1488.21H1209.49C1213.11 1488.21 1216.58 1486.77 1219.15 1484.21L1238.45 1464.91C1241.01 1462.35 1242.45 1458.87 1242.45 1455.25V1391.47C1242.45 1387.85 1243.89 1384.37 1246.45 1381.81L1265.76 1362.51C1268.32 1359.95 1271.79 1358.51 1275.42 1358.51H1311.89C1315.51 1358.51 1318.98 1357.07 1321.55 1354.51L1340.85 1335.2C1343.41 1332.64 1344.85 1329.17 1344.85 1325.54V1029.66C1344.85 1026.03 1343.41 1022.56 1340.85 1020L1321.55 1000.69C1318.98 998.132 1315.51 996.693 1311.89 996.693H1275.42C1271.79 996.693 1268.32 995.255 1265.76 992.694L1246.45 973.386C1243.89 970.825 1242.45 967.352 1242.45 963.731V901.12C1242.45 893.579 1236.34 887.467 1228.8 887.467H928.426C920.886 887.467 914.773 881.354 914.773 873.813V737.28C914.773 729.739 920.886 723.627 928.426 723.627H1298.24C1301.86 723.627 1305.33 722.188 1307.89 719.628L1327.2 700.319C1329.76 697.758 1331.2 694.286 1331.2 690.665V585.922C1331.2 582.301 1329.76 578.828 1327.2 576.268Z" stroke="url(#paint11_radial_31_2)" stroke-opacity="0.65" stroke-width="13.6533"/>
<path d="M1327.2 576.268L1307.89 556.959C1305.33 554.398 1301.86 552.96 1298.24 552.96H730.453C722.913 552.96 716.8 559.073 716.8 566.613V1025.17C716.8 1028.79 718.238 1032.27 720.799 1034.83L740.108 1054.13C742.668 1056.69 746.141 1058.13 749.762 1058.13H1113.92C1117.54 1058.13 1121.01 1059.57 1123.57 1062.13L1142.88 1081.44C1145.44 1084 1146.88 1087.47 1146.88 1091.1V1276.59C1146.88 1284.13 1140.77 1290.24 1133.23 1290.24H942.08C934.539 1290.24 928.426 1284.13 928.426 1276.59V1248.11C928.426 1244.49 926.988 1241.01 924.428 1238.45L905.119 1219.15C902.558 1216.59 899.085 1215.15 895.464 1215.15H730.453C722.913 1215.15 716.8 1221.26 716.8 1228.8V1332.37C716.8 1335.99 718.238 1339.47 720.799 1342.03L740.108 1361.33C742.668 1363.89 746.141 1365.33 749.762 1365.33H791.893C799.434 1365.33 805.546 1371.45 805.546 1378.99V1455.25C805.546 1458.87 806.985 1462.35 809.545 1464.91L828.854 1484.21C831.415 1486.77 834.887 1488.21 838.509 1488.21H1209.49C1213.11 1488.21 1216.58 1486.77 1219.15 1484.21L1238.45 1464.91C1241.01 1462.35 1242.45 1458.87 1242.45 1455.25V1391.47C1242.45 1387.85 1243.89 1384.37 1246.45 1381.81L1265.76 1362.51C1268.32 1359.95 1271.79 1358.51 1275.42 1358.51H1311.89C1315.51 1358.51 1318.98 1357.07 1321.55 1354.51L1340.85 1335.2C1343.41 1332.64 1344.85 1329.17 1344.85 1325.54V1029.66C1344.85 1026.03 1343.41 1022.56 1340.85 1020L1321.55 1000.69C1318.98 998.132 1315.51 996.693 1311.89 996.693H1275.42C1271.79 996.693 1268.32 995.255 1265.76 992.694L1246.45 973.386C1243.89 970.825 1242.45 967.352 1242.45 963.731V901.12C1242.45 893.579 1236.34 887.467 1228.8 887.467H928.426C920.886 887.467 914.773 881.354 914.773 873.813V737.28C914.773 729.739 920.886 723.627 928.426 723.627H1298.24C1301.86 723.627 1305.33 722.188 1307.89 719.628L1327.2 700.319C1329.76 697.758 1331.2 694.286 1331.2 690.665V585.922C1331.2 582.301 1329.76 578.828 1327.2 576.268Z" stroke="url(#paint12_radial_31_2)" stroke-opacity="0.65" stroke-width="13.6533"/>
<path d="M1327.2 576.268L1307.89 556.959C1305.33 554.398 1301.86 552.96 1298.24 552.96H730.453C722.913 552.96 716.8 559.073 716.8 566.613V1025.17C716.8 1028.79 718.238 1032.27 720.799 1034.83L740.108 1054.13C742.668 1056.69 746.141 1058.13 749.762 1058.13H1113.92C1117.54 1058.13 1121.01 1059.57 1123.57 1062.13L1142.88 1081.44C1145.44 1084 1146.88 1087.47 1146.88 1091.1V1276.59C1146.88 1284.13 1140.77 1290.24 1133.23 1290.24H942.08C934.539 1290.24 928.426 1284.13 928.426 1276.59V1248.11C928.426 1244.49 926.988 1241.01 924.428 1238.45L905.119 1219.15C902.558 1216.59 899.085 1215.15 895.464 1215.15H730.453C722.913 1215.15 716.8 1221.26 716.8 1228.8V1332.37C716.8 1335.99 718.238 1339.47 720.799 1342.03L740.108 1361.33C742.668 1363.89 746.141 1365.33 749.762 1365.33H791.893C799.434 1365.33 805.546 1371.45 805.546 1378.99V1455.25C805.546 1458.87 806.985 1462.35 809.545 1464.91L828.854 1484.21C831.415 1486.77 834.887 1488.21 838.509 1488.21H1209.49C1213.11 1488.21 1216.58 1486.77 1219.15 1484.21L1238.45 1464.91C1241.01 1462.35 1242.45 1458.87 1242.45 1455.25V1391.47C1242.45 1387.85 1243.89 1384.37 1246.45 1381.81L1265.76 1362.51C1268.32 1359.95 1271.79 1358.51 1275.42 1358.51H1311.89C1315.51 1358.51 1318.98 1357.07 1321.55 1354.51L1340.85 1335.2C1343.41 1332.64 1344.85 1329.17 1344.85 1325.54V1029.66C1344.85 1026.03 1343.41 1022.56 1340.85 1020L1321.55 1000.69C1318.98 998.132 1315.51 996.693 1311.89 996.693H1275.42C1271.79 996.693 1268.32 995.255 1265.76 992.694L1246.45 973.386C1243.89 970.825 1242.45 967.352 1242.45 963.731V901.12C1242.45 893.579 1236.34 887.467 1228.8 887.467H928.426C920.886 887.467 914.773 881.354 914.773 873.813V737.28C914.773 729.739 920.886 723.627 928.426 723.627H1298.24C1301.86 723.627 1305.33 722.188 1307.89 719.628L1327.2 700.319C1329.76 697.758 1331.2 694.286 1331.2 690.665V585.922C1331.2 582.301 1329.76 578.828 1327.2 576.268Z" stroke="url(#paint13_linear_31_2)" stroke-opacity="0.65" stroke-width="13.6533"/>
</g>
</g>
<defs>
<filter id="filter0_d_31_2" x="-27.3067" y="0" width="2102.61" height="2102.61" filterUnits="userSpaceOnUse" color-interpolation-filters="sRGB">
<feFlood flood-opacity="0" result="BackgroundImageFix"/>
<feColorMatrix in="SourceAlpha" type="matrix" values="0 0 0 0 0 0 0 0 0 0 0 0 0 0 0 0 0 0 127 0" result="hardAlpha"/>
<feOffset dy="27.3067"/>
<feGaussianBlur stdDeviation="13.6533"/>
<feComposite in2="hardAlpha" operator="out"/>
<feColorMatrix type="matrix" values="0 0 0 0 0 0 0 0 0 0 0 0 0 0 0 0 0 0 0.25 0"/>
<feBlend mode="normal" in2="BackgroundImageFix" result="effect1_dropShadow_31_2"/>
<feBlend mode="normal" in="SourceGraphic" in2="effect1_dropShadow_31_2" result="shape"/>
</filter>
<filter id="filter1_i_31_2" x="1474.56" y="525.653" width="314.027" height="969.387" filterUnits="userSpaceOnUse" color-interpolation-filters="sRGB">
<feFlood flood-opacity="0" result="BackgroundImageFix"/>
<feBlend mode="normal" in="SourceGraphic" in2="BackgroundImageFix" result="shape"/>
<feColorMatrix in="SourceAlpha" type="matrix" values="0 0 0 0 0 0 0 0 0 0 0 0 0 0 0 0 0 0 127 0" result="hardAlpha"/>
<feOffset dx="6.82667" dy="-20.48"/>
<feGaussianBlur stdDeviation="20.48"/>
<feComposite in2="hardAlpha" operator="arithmetic" k2="-1" k3="1"/>
<feColorMatrix type="matrix" values="0 0 0 0 0.0566048 0 0 0 0 0.0266298 0 0 0 0 0.0599353 0 0 0 0.25 0"/>
<feBlend mode="normal" in2="shape" result="effect1_innerShadow_31_2"/>
</filter>
<filter id="filter2_i_31_2" x="245.76" y="525.653" width="314.027" height="969.387" filterUnits="userSpaceOnUse" color-interpolation-filters="sRGB">
<feFlood flood-opacity="0" result="BackgroundImageFix"/>
<feBlend mode="normal" in="SourceGraphic" in2="BackgroundImageFix" result="shape"/>
<feColorMatrix in="SourceAlpha" type="matrix" values="0 0 0 0 0 0 0 0 0 0 0 0 0 0 0 0 0 0 127 0" result="hardAlpha"/>
<feOffset dx="6.82667" dy="-20.48"/>
<feGaussianBlur stdDeviation="20.48"/>
<feComposite in2="hardAlpha" operator="arithmetic" k2="-1" k3="1"/>
<feColorMatrix type="matrix" values="0 0 0 0 0.0566048 0 0 0 0 0.0266298 0 0 0 0 0.0599353 0 0 0 0.25 0"/>
<feBlend mode="normal" in2="shape" result="effect1_innerShadow_31_2"/>
</filter>
<filter id="filter3_i_31_2" x="709.973" y="546.133" width="650.707" height="956.907" filterUnits="userSpaceOnUse" color-interpolation-filters="sRGB">
<feFlood flood-opacity="0" result="BackgroundImageFix"/>
<feBlend mode="normal" in="SourceGraphic" in2="BackgroundImageFix" result="shape"/>
<feColorMatrix in="SourceAlpha" type="matrix" values="0 0 0 0 0 0 0 0 0 0 0 0 0 0 0 0 0 0 127 0" result="hardAlpha"/>
<feOffset dx="9" dy="8"/>
<feGaussianBlur stdDeviation="22.5"/>
<feComposite in2="hardAlpha" operator="arithmetic" k2="-1" k3="1"/>
<feColorMatrix type="matrix" values="0 0 0 0 0.0566048 0 0 0 0 0.0266298 0 0 0 0 0.0599353 0 0 0 0.25 0"/>
<feBlend mode="normal" in2="shape" result="effect1_innerShadow_31_2"/>
</filter>
<radialGradient id="paint0_radial_31_2" cx="0" cy="0" r="1" gradientUnits="userSpaceOnUse" gradientTransform="translate(1669 413) rotate(94.5749) scale(1197.31 1140.25)">
<stop offset="0.0564926" stop-color="#EA4AE8"/>
<stop offset="0.33462" stop-color="#F152B7"/>
<stop offset="0.754808" stop-color="#ED4BBD"/>
<stop offset="0.947115" stop-color="#DD2CDA"/>
</radialGradient>
<linearGradient id="paint1_linear_31_2" x1="1532.59" y1="512" x2="1720.32" y2="1604.27" gradientUnits="userSpaceOnUse">
<stop stop-color="white"/>
<stop offset="1" stop-color="#F47EFF"/>
</linearGradient>
<linearGradient id="paint2_linear_31_2" x1="1674" y1="445.5" x2="1674" y2="1616" gradientUnits="userSpaceOnUse">
<stop stop-color="white"/>
<stop offset="1" stop-color="#A9A9A9"/>
</linearGradient>
<radialGradient id="paint3_radial_31_2" cx="0" cy="0" r="1" gradientUnits="userSpaceOnUse" gradientTransform="translate(1529 458) rotate(77.7184) scale(1156.47 362.979)">
<stop stop-color="#FFC3F5"/>
<stop offset="1" stop-color="#A550FF"/>
</radialGradient>
<radialGradient id="paint4_radial_31_2" cx="0" cy="0" r="1" gradientUnits="userSpaceOnUse" gradientTransform="translate(494.934 453.973) rotate(100.214) scale(1154.94 1099.89)">
<stop offset="0.100962" stop-color="#EA4AE8"/>
<stop offset="0.490385" stop-color="#EE4CC8"/>
<stop offset="0.745192" stop-color="#EA4CBB"/>
<stop offset="0.913462" stop-color="#DD2CDA"/>
</radialGradient>
<linearGradient id="paint5_linear_31_2" x1="303.787" y1="512" x2="491.52" y2="1604.27" gradientUnits="userSpaceOnUse">
<stop stop-color="white"/>
<stop offset="1" stop-color="#FF4AC7"/>
</linearGradient>
<linearGradient id="paint6_linear_31_2" x1="443.734" y1="459.5" x2="443.734" y2="1605" gradientUnits="userSpaceOnUse">
<stop stop-color="white"/>
<stop offset="1" stop-color="#B1B1B1"/>
</linearGradient>
<radialGradient id="paint7_radial_31_2" cx="0" cy="0" r="1" gradientUnits="userSpaceOnUse" gradientTransform="translate(563 424) rotate(103.024) scale(1180.36 370.479)">
<stop stop-color="#FFC3F5"/>
<stop offset="1" stop-color="#B143FF"/>
</radialGradient>
<radialGradient id="paint8_radial_31_2" cx="0" cy="0" r="1" gradientTransform="matrix(-438.177 1136.64 -2315.97 -195.038 1235.31 453.973)" gradientUnits="userSpaceOnUse">
<stop offset="0.100962" stop-color="#EA4AE8"/>
<stop offset="0.504808" stop-color="#EA4AB0"/>
<stop offset="0.673077" stop-color="#E845B8"/>
<stop offset="0.913462" stop-color="#DD2CDA"/>
</radialGradient>
<linearGradient id="paint9_linear_31_2" x1="826.344" y1="512" x2="916.102" y2="1629.32" gradientUnits="userSpaceOnUse">
<stop stop-color="white"/>
<stop offset="1" stop-color="#F47EFF"/>
</linearGradient>
<radialGradient id="paint10_radial_31_2" cx="0" cy="0" r="1" gradientUnits="userSpaceOnUse" gradientTransform="translate(1345 532) rotate(90.0088) scale(956.213 642.129)">
<stop stop-color="white"/>
<stop offset="0.198696" stop-color="#696969"/>
<stop offset="0.4455" stop-color="white"/>
<stop offset="0.647521" stop-color="#BEBEBE"/>
<stop offset="0.796077" stop-color="#BCBCBC"/>
<stop offset="1" stop-color="#444444"/>
</radialGradient>
<radialGradient id="paint11_radial_31_2" cx="0" cy="0" r="1" gradientUnits="userSpaceOnUse" gradientTransform="translate(1030.83 447.147) rotate(90) scale(1181.01 793.089)">
<stop offset="0.0921695" stop-color="white"/>
<stop offset="0.217486" stop-color="#ACACAC"/>
<stop offset="0.346189" stop-color="#EBEBEB"/>
<stop offset="0.544324" stop-color="#808080"/>
<stop offset="0.695042" stop-color="#FFFCFC"/>
<stop offset="0.994784" stop-color="#C5C5C5"/>
</radialGradient>
<radialGradient id="paint12_radial_31_2" cx="0" cy="0" r="1" gradientUnits="userSpaceOnUse" gradientTransform="translate(689 418) rotate(90.1936) scale(1184.01 795.099)">
<stop stop-color="white"/>
<stop offset="0.538562" stop-color="#A2A2A2"/>
<stop offset="0.671257" stop-color="#FCFAFD"/>
<stop offset="0.932785" stop-color="#AEAEAE"/>
</radialGradient>
<linearGradient id="paint13_linear_31_2" x1="1105.92" y1="477.867" x2="983.04" y2="1600.85" gradientUnits="userSpaceOnUse">
<stop offset="0.0618953" stop-color="#EEA5FF"/>
<stop offset="0.293205" stop-color="#DF5FFF"/>
<stop offset="0.4" stop-color="#FFA6F5"/>
<stop offset="0.516837" stop-color="#CD68FF"/>
<stop offset="0.691955" stop-color="#D967FF"/>
<stop offset="1" stop-color="#A640FF"/>
</linearGradient>
</defs>
</svg>
