<svg xmlns="http://www.w3.org/2000/svg" viewBox="0 0 32 32">
  <defs>
    <linearGradient id="g" x1="0%" y1="0%" x2="100%" y2="100%">
      <stop offset="0%" stop-color="#9564D6"/>
      <stop offset="50%" stop-color="#D959DC"/>
      <stop offset="100%" stop-color="#C616BA"/>
    </linearGradient>
  </defs>
  <rect width="32" height="32" rx="6" fill="#131515"/>
  <g transform="translate(6.53, 2.00) scale(0.0295)">
    <path d="M617.228 30.1344L597.919 10.8256C595.359 8.26513 591.886 6.82666 588.265 6.82666H20.4805C12.94 6.82666 6.82715 12.9395 6.82715 20.48V479.038C6.82715 482.659 8.26562 486.132 10.8261 488.692L30.1348 508.001C32.6953 510.562 36.1681 512 39.7892 512H403.945C407.566 512 411.039 513.438 413.599 515.999L432.908 535.308C435.469 537.868 436.907 541.341 436.907 544.962V730.453C436.907 737.994 430.794 744.107 423.254 744.107H232.107C224.567 744.107 218.454 737.994 218.454 730.453V701.975C218.454 698.354 217.015 694.882 214.455 692.321L195.146 673.012C192.586 670.452 189.113 669.013 185.492 669.013H20.4805C12.94 669.013 6.82715 675.126 6.82715 682.667V786.238C6.82715 789.859 8.26562 793.332 10.8261 795.892L30.1348 815.201C32.6953 817.762 36.1681 819.2 39.7892 819.2H81.9205C89.461 819.2 95.5738 825.313 95.5738 832.853V909.118C95.5738 912.739 97.0123 916.212 99.5728 918.772L118.882 938.081C121.442 940.642 124.915 942.08 128.536 942.08H499.518C503.14 942.08 506.612 940.642 509.173 938.081L528.482 918.772C531.042 916.212 532.48 912.739 532.48 909.118V845.335C532.48 841.714 533.919 838.242 536.479 835.681L555.788 816.372C558.349 813.812 561.821 812.373 565.443 812.373H601.918C605.54 812.373 609.012 810.935 611.573 808.374L630.882 789.066C633.442 786.505 634.88 783.032 634.88 779.411V483.522C634.88 479.901 633.442 476.428 630.882 473.868L611.573 454.559C609.012 451.998 605.539 450.56 601.918 450.56H565.443C561.821 450.56 558.349 449.122 555.788 446.561L536.479 427.252C533.919 424.692 532.48 421.219 532.48 417.598V354.987C532.48 347.446 526.368 341.333 518.827 341.333H218.454C210.913 341.333 204.8 335.221 204.8 327.68V191.147C204.8 183.606 210.913 177.493 218.454 177.493H588.265C591.886 177.493 595.359 176.055 597.919 173.494L617.228 154.186C619.789 151.625 621.227 148.152 621.227 144.531V39.7887C621.227 36.1676 619.789 32.6949 617.228 30.1344Z" fill="url(#g)"/>
  </g>
</svg>
